<svg width="60" height="61" viewBox="0 0 60 61" fill="none" xmlns="http://www.w3.org/2000/svg">
<path d="M27 29C26.6581 23.1884 21.2211 17.5271 21 11.7778C20.8532 7.96173 17 5.54723 17 2" stroke="#131313" stroke-width="3" stroke-linecap="round"/>
<path d="M27 32C16.7078 32 10.4861 27.243 2 23" stroke="#131313" stroke-width="3" stroke-linecap="round"/>
<path d="M28 34C21.1092 41.6565 16.301 51.699 9 59" stroke="#131313" stroke-width="3" stroke-linecap="round"/>
<path d="M28 33C28 35.3079 29.0674 37.7295 30.4444 39.5C31.8469 41.3031 30.65 43.9751 32 46" stroke="#131313" stroke-width="3" stroke-linecap="round"/>
<path d="M31 30C31.4017 27.7907 33.0478 26.2815 34.7778 25C36.8194 23.4877 36.7662 21.6526 38.0556 19.6111C39.8521 16.7666 42.3639 11.7574 45 10" stroke="#131313" stroke-width="3" stroke-linecap="round"/>
<path d="M28 34H58" stroke="#131313" stroke-width="3" stroke-linecap="round"/>
<path d="M31 42V58" stroke="#131313" stroke-width="3" stroke-linecap="round"/>
<path d="M27 34C24.5083 34 24.7025 36 21.5 36C18.2369 36 18.371 38.1845 16.7778 39.7778C14.5661 41.9894 7 40.3506 7 45" stroke="#131313" stroke-width="3" stroke-linecap="round"/>
<path d="M30 32C35.501 31.4999 39.7688 28 45 28" stroke="#131313" stroke-width="3" stroke-linecap="round"/>
</svg>
