<svg width="51" height="47" viewBox="0 0 51 47" fill="none" xmlns="http://www.w3.org/2000/svg">
<path d="M25 21C25 25 25 29 25 33C25 37.404 22 41.2497 22 45" stroke="black" stroke-width="3" stroke-linecap="round"/>
<path d="M24 21C21.303 21.5394 17.1596 25.8673 14.7222 27.4444C13.1087 28.4885 11.513 29.8024 10.2222 31.2222C8.04007 33.6226 6 33.1769 6 37" stroke="black" stroke-width="3" stroke-linecap="round"/>
<path d="M26 19C25.6479 15.8313 17.469 11 14.5 11C10.1181 11 4.24477 5.36715 2 2" stroke="black" stroke-width="3" stroke-linecap="round"/>
<path d="M28 19C31.1362 15.6793 31.9075 11.9483 33.7778 8C34.7903 5.8625 37 4.39722 37 2" stroke="black" stroke-width="3" stroke-linecap="round"/>
<path d="M29 22C36.0404 19.0867 41.6292 18 49 18" stroke="black" stroke-width="3" stroke-linecap="round"/>
<path d="M25 21C30.6794 23.8834 34.8411 27.6251 40 30.7778C42.6154 32.3761 44.2478 34.6239 47 36" stroke="black" stroke-width="3" stroke-linecap="round"/>
<path d="M22 19C19.4406 19.2844 17.7694 21 15 21C12.6667 21 10.3333 21 8 21" stroke="black" stroke-width="3" stroke-linecap="round"/>
</svg>
