<svg width="254" height="77" viewBox="0 0 254 77" fill="none" xmlns="http://www.w3.org/2000/svg">
<path d="M2.02785 55.3016C2.02785 50.7815 1.59269 46.8185 4.16249 42.7818C5.37244 40.8812 8.87185 37.9638 9.01393 35.7054C9.09355 34.4397 8.49017 32.235 9.40204 31.1692C10.9205 29.3945 12.507 25 12.507 25C12.507 25 12.507 31.5926 12.507 34.8889C12.507 42.4451 14.2535 49.7987 14.2535 57.6605C14.2535 61.2289 14.2535 64.7974 14.2535 68.3658C14.2535 71.4969 12.5185 78.1478 16 73.2649" stroke="black" stroke-width="3" stroke-linecap="round"/>
<path d="M28 29.9241C28.6255 24.3194 47.5 4.59035 47.5 19.4076C47.5 25.4955 55.5799 41.619 50.3889 47.3616C45.7602 52.4822 44.7313 68.2705 37.0278 70.4619C31.1923 72.1219 54 69.9428 54 63.9004" stroke="black" stroke-width="3" stroke-linecap="round"/>
<path d="M91 17C91 28.8768 97.5941 43.9701 100.81 55.8069C102.636 62.5294 102.039 67.4141 108.985 70.4955C116.901 74.0075 144.037 58.1603 136.779 54.5375" stroke="black" stroke-width="3" stroke-linecap="round"/>
<path d="M95 51C98.7855 50.5717 115.228 38.6088 117 35" stroke="black" stroke-width="3" stroke-linecap="round"/>
<path d="M161.81 46C161.81 40.8142 163.734 20.0299 155.334 20.0299C148.716 20.0299 144 19.1199 144 27.334C144 34.9854 147.158 34.4067 150.476 40.2289C152.901 44.4826 162.793 44.2174 156.953 42.7537" stroke="black" stroke-width="3" stroke-linecap="round"/>
<path d="M175 41C175 27.7649 174 15.2585 174 2" stroke="black" stroke-width="3" stroke-linecap="round"/>
<path d="M174 12.481C181.05 12.481 191.16 10.676 197.118 14.0594C201.062 16.2994 201 28.5773 201 33" stroke="black" stroke-width="3" stroke-linecap="round"/>
<path d="M220.211 17.6218C224.732 17.3247 232.384 7.22621 224.775 7.22621C223.357 7.22621 218.778 6.51015 217.929 7.62604C216.642 9.3175 217.168 12.0707 217.168 14.2455C217.168 16.7036 216.466 20.098 217.929 22.0199C218.409 22.6513 220.166 25.6205 220.211 26.4181C220.599 33.3597 227.153 24.4134 227.817 21.6201" stroke="black" stroke-width="3" stroke-linecap="round"/>
<path d="M252 4C246.254 4 238.511 6.95009 234.96 11.4643C231.402 15.9867 238.737 18.1433 240.699 19.8889C246.144 24.7346 256 37 242.464 37" stroke="black" stroke-width="3" stroke-linecap="round"/>
</svg>
